PathFileType	4	(X/Y/Z)	/Users/niels/Desktop/University/Third Semester/Perception and Action/Exam/Gymnastics Motion Tracking/Code for Gym Tracking/Analyzed Data/Webcam_Backflip/id1_5_baseline_Sports2D/id1_5_baseline_Sports2D_px_person00.trc
DataRate	CameraRate	NumFrames	NumMarkers	Units	OrigDataRate	OrigDataStartFrame	OrigNumFrames
29.87551867219917	29.87551867219917	7	22	m	29.87551867219917	60	241
Frame#	Time	Hip			RHip			RKnee			RAnkle			RBigToe			RSmallToe			RHeel			LHip			LKnee			LAnkle			LBigToe			LSmallToe			LHeel			Neck			Head			Nose			RShoulder			RElbow			RWrist			LShoulder			LElbow			LWrist		
		X1	Y1	Z1	X2	Y2	Z2	X3	Y3	Z3	X4	Y4	Z4	X5	Y5	Z5	X6	Y6	Z6	X7	Y7	Z7	X8	Y8	Z8	X9	Y9	Z9	X10	Y10	Z10	X11	Y11	Z11	X12	Y12	Z12	X13	Y13	Z13	X14	Y14	Z14	X15	Y15	Z15	X16	Y16	Z16	X17	Y17	Z17	X18	Y18	Z18	X19	Y19	Z19	X20	Y20	Z20	X21	Y21	Z21	X22	Y22	Z22
60	2.0083333333333333	0.911053353479786	-0.5753132707622652	0.0	0.9106700393869755	-0.5696285286446848	0.0	0.9348141324781601	-0.6807923237084011	0.0	0.9146123818212836	-0.7917578471250204	0.0	0.9524342129798627	-0.8200435444181791	0.0	0.9427138748718492	-0.821300661174373	0.0	0.901909145795722	-0.8059250858445669	0.0	0.9124464618848962	-0.5674278282543564	0.0	0.9332008851672656	-0.6738208841913556	0.0	0.9186223432104745	-0.7807766406895406	0.0	0.9538914805931425	-0.8061116810797748	0.0	0.9450711437758975	-0.8032779169176842	0.0	0.8967377769229758	-0.8001490687624839	0.0	0.9801246628761833	-0.44944499812206523	0.0	1.0437532873722004	-0.3973548623993901	0.0	1.036566086327652	-0.4322183591077281	0.0	0.9728754210389368	-0.45219399664116516	0.0	0.9047020837015314	-0.4364294006820955	0.0	0.8402537638274041	-0.4237751867031684	0.0	0.9708623530070059	-0.45157016480116957	0.0	0.9025500145954433	-0.4393437502145745	0.0	0.8390286451941645	-0.430853085525971	0.0
61	2.0418055555555554	0.9076242065082056	-0.5678091092118893	0.0	0.907262370137718	-0.5623635119778887	0.0	0.937322064262222	-0.6726240271992573	0.0	0.9148932493078432	-0.7835325514883258	0.0	0.9530958032566854	-0.8129300177335522	0.0	0.9433755226145119	-0.8135077628003453	0.0	0.9017015077167974	-0.7972525090077007	0.0	0.9087772816318479	-0.5601335867062895	0.0	0.9355657161286957	-0.6656589829549056	0.0	0.9192668755562323	-0.7720944833691715	0.0	0.9549867497766321	-0.7985679752123762	0.0	0.9459028604597594	-0.796255283349318	0.0	0.8967019545030706	-0.7922155092689847	0.0	0.9811517646029764	-0.44580881146980406	0.0	1.0459761124847617	-0.39705907264166995	0.0	1.0380742362678184	-0.430545457462422	0.0	0.9738951285880186	-0.4479883258975239	0.0	0.9075443731816641	-0.42984328949863554	0.0	0.8442884579015003	-0.4125858396114927	0.0	0.9712100589650081	-0.4467479627203773	0.0	0.9032430356229149	-0.4305312881949281	0.0	0.841325056409432	-0.4181231548968486	0.0
62	2.075277777777778	0.9041926181123167	-0.5621738203036891	0.0	0.9038799123305864	-0.5570147985922252	0.0	0.9413706732224896	-0.66544769616265	0.0	0.9153261207118998	-0.7756743229619557	0.0	0.9536396666084226	-0.8053310376891137	0.0	0.9440898688097266	-0.806199194009175	0.0	0.9014782915265813	-0.7888784453832185	0.0	0.9059144781452174	-0.5549055013246217	0.0	0.9395000678758065	-0.6589435343250492	0.0	0.9197502439956073	-0.7647152957034932	0.0	0.9558935890348577	-0.7929140873807935	0.0	0.9472366802015674	-0.790665396263299	0.0	0.8965390152825183	-0.7846112839879923	0.0	0.9820658483745766	-0.44324920231115505	0.0	1.0475512701690097	-0.3977935867104597	0.0	1.0390950889777295	-0.43007955282131116	0.0	0.9741826994673575	-0.44531246587897566	0.0	0.9094763909142474	-0.42541618605591675	0.0	0.846526969873259	-0.4050907036281218	0.0	0.9713845020880832	-0.4436323129135233	0.0	0.9039539448426016	-0.42384277304409407	0.0	0.8439758437846997	-0.408030840544395	0.0
63	2.10875	0.9008934056640956	-0.5590943087664443	0.0	0.9006653376996849	-0.5543287934372821	0.0	0.946597810379865	-0.6599102929475497	0.0	0.9158816908056591	-0.7687104713811778	0.0	0.9539256841376674	-0.7986198084349282	0.0	0.9445904300648261	-0.7999688769917724	0.0	0.9012903558171999	-0.7814578528963031	0.0	0.9039338339572804	-0.5524567539143944	0.0	0.9447261257656505	-0.65426294465802	0.0	0.919942002325957	-0.759086020471627	0.0	0.9563073957389392	-0.7894485773710918	0.0	0.9486785645131418	-0.7869362131134752	0.0	0.8960920890396469	-0.7778368874608995	0.0	0.982824309855503	-0.4424704863991449	0.0	1.0484987913038866	-0.39973866587582857	0.0	1.039609872821304	-0.43124999949817694	0.0	0.9736190488486669	-0.4446726490618418	0.0	0.9099547950725732	-0.4233244450565727	0.0	0.8461404096151257	-0.4018631253858395	0.0	0.9715600971146822	-0.44302632145521204	0.0	0.9048061291220225	-0.4201640008386572	0.0	0.8465383915687109	-0.40129070067908834	0.0
64	2.1422222222222222	0.8978500694586349	-0.559079172958241	0.0	0.8977901420444484	-0.5549241649387258	0.0	0.9524972438232345	-0.6565678546190183	0.0	0.9164985031008221	-0.7632951796987817	0.0	0.9540064627938466	-0.7935846463105286	0.0	0.9447922955839866	-0.7953158078440872	0.0	0.9011477213143004	-0.7757307515359649	0.0	0.9024907156461339	-0.5532759959415675	0.0	0.9507385165335835	-0.651922709312633	0.0	0.9198451077302672	-0.755492116040572	0.0	0.9562336684084919	-0.787937158561496	0.0	0.9498835555768335	-0.7851704802843166	0.0	0.8953553492380045	-0.7726249968102146	0.0	0.9834165331711046	-0.4441449653516929	0.0	1.0488254022257868	-0.40317412262690727	0.0	1.0396797604250385	-0.4343871829980378	0.0	0.9723869535479756	-0.4464689537478383	0.0	0.9088915638594786	-0.4240216908392771	0.0	0.8434827258090375	-0.403399512352526	0.0	0.9718051748546738	-0.44547809146456185	0.0	0.9056022824232799	-0.4204959509994402	0.0	0.8482079731743075	-0.399438874900371	0.0
65	2.1756944444444444	0.8951738355673542	-0.5625186872014836	0.0	0.8953988950750399	-0.5592329999883967	0.0	0.9585676222124417	-0.6559061405476118	0.0	0.9170740805467458	-0.7601340022606171	0.0	0.9539955102400772	-0.7906533817890787	0.0	0.9447299265336152	-0.7926471444798666	0.0	0.901030472393233	-0.772412441038405	0.0	0.9010449066925869	-0.5576368817129801	0.0	0.9569062382788581	-0.6521094560404395	0.0	0.919571048314788	-0.7542210908119308	0.0	0.9558574971453646	-0.7879853317953253	0.0	0.9506182428206131	-0.7851998140667491	0.0	0.8944936908700467	-0.7697450322853497	0.0	0.9838812897820941	-0.4487977607068173	0.0	1.0485095738860002	-0.40845000283135874	0.0	1.0394244780907946	-0.4397043713033805	0.0	0.970906291751888	-0.4510252789788829	0.0	0.9065999025741547	-0.42822189968754015	0.0	0.8396506214072782	-0.41018950952789335	0.0	0.9721132215765362	-0.4512560860824667	0.0	0.9059535029800916	-0.42581536132129	0.0	0.8481520916655453	-0.40449552981282644	0.0
66	2.2091666666666665	0.8929535041203848	-0.5696566889788437	0.0	0.8935540514163195	-0.5674210446234953	0.0	0.9643938901254071	-0.6583454432296055	0.0	0.9175020696496639	-0.7598829267398831	0.0	0.9539362680213092	-0.7901525470787151	0.0	0.9444640083650139	-0.7923344925243466	0.0	0.9009410271748303	-0.7721105270772672	0.0	0.899205979791544	-0.5656366434707097	0.0	0.9625914737314887	-0.655066063192226	0.0	0.9192135861697746	-0.7556306192264128	0.0	0.9553956195434836	-0.7895236130953455	0.0	0.9507970587901166	-0.7868940576472647	0.0	0.8937959091488649	-0.7697971979220458	0.0	0.9842933181892984	-0.45663923998500155	0.0	1.047520362783327	-0.41582514264038273	0.0	1.03895705568272	-0.4472116753691087	0.0	0.9695750337429236	-0.4586144931804333	0.0	0.9035747532831971	-0.43683288508871804	0.0	0.8356878182374279	-0.42319103423747095	0.0	0.9724231498223475	-0.46035542915494143	0.0	0.905562619011326	-0.4367801921976159	0.0	0.8461965621136421	-0.4181198104434091	0.0
